<svg width="24" height="24" viewBox="0 0 24 24" fill="none" xmlns="http://www.w3.org/2000/svg">
<path d="M20.749 12.0002L21.853 10.0922C21.9857 9.86262 22.0218 9.58977 21.9533 9.33361C21.8849 9.07745 21.7175 8.85896 21.488 8.72618L19.578 7.62218V5.42218C19.578 5.15696 19.4727 4.90261 19.2851 4.71507C19.0976 4.52754 18.8432 4.42218 18.578 4.42218H16.379L15.276 2.51318C15.1428 2.2841 14.9247 2.11668 14.669 2.04718C14.5422 2.0128 14.4098 2.00393 14.2795 2.0211C14.1492 2.03826 14.0236 2.08112 13.91 2.14718L12 3.25118L10.09 2.14618C9.86033 2.01358 9.58739 1.97764 9.33121 2.04628C9.07504 2.11492 8.85662 2.28251 8.72401 2.51218L7.62001 4.42218H5.42101C5.15579 4.42218 4.90144 4.52754 4.7139 4.71507C4.52637 4.90261 4.42101 5.15696 4.42101 5.42218V7.62118L2.51101 8.72518C2.39704 8.79074 2.29715 8.87816 2.21708 8.98244C2.137 9.08672 2.07832 9.20579 2.0444 9.33282C2.01048 9.45985 2.002 9.59232 2.01944 9.72264C2.03687 9.85295 2.07989 9.97854 2.14601 10.0922L3.25001 12.0002L2.14601 13.9082C2.014 14.138 1.97818 14.4106 2.04637 14.6667C2.11456 14.9227 2.28121 15.1415 2.51001 15.2752L4.42001 16.3792V18.5782C4.42001 18.8434 4.52537 19.0977 4.7129 19.2853C4.90044 19.4728 5.15479 19.5782 5.42001 19.5782H7.62001L8.72401 21.4882C8.81254 21.6395 8.93895 21.7652 9.09079 21.8529C9.24263 21.9405 9.41468 21.9872 9.59001 21.9882C9.76401 21.9882 9.93701 21.9422 10.091 21.8532L11.999 20.7492L13.909 21.8532C14.1386 21.9856 14.4114 22.0215 14.6675 21.9531C14.9236 21.8847 15.142 21.7175 15.275 21.4882L16.378 19.5782H18.577C18.8422 19.5782 19.0966 19.4728 19.2841 19.2853C19.4717 19.0977 19.577 18.8434 19.577 18.5782V16.3792L21.487 15.2752C21.6008 15.2094 21.7005 15.1219 21.7804 15.0176C21.8603 14.9133 21.9189 14.7943 21.9528 14.6673C21.9867 14.5404 21.9953 14.408 21.978 14.2777C21.9607 14.1475 21.9179 14.0219 21.852 13.9082L20.749 12.0002ZM9.49901 6.99018C9.89697 6.99031 10.2786 7.14853 10.5599 7.43002C10.8412 7.71151 10.9991 8.09322 10.999 8.49118C10.9989 8.88914 10.8407 9.27074 10.5592 9.55205C10.2777 9.83335 9.89597 9.99131 9.49801 9.99118C9.10005 9.99105 8.71845 9.83283 8.43714 9.55134C8.15584 9.26985 7.99788 8.88814 7.99801 8.49018C7.99814 8.09222 8.15636 7.71062 8.43785 7.42931C8.71934 7.14801 9.10105 6.99005 9.49901 6.99018ZM9.79901 16.5902L8.19901 15.3912L14.199 7.39118L15.799 8.59018L9.79901 16.5902ZM14.499 16.9902C14.302 16.9901 14.1069 16.9512 13.9248 16.8758C13.7428 16.8003 13.5774 16.6897 13.4381 16.5503C13.2989 16.411 13.1884 16.2455 13.113 16.0634C13.0377 15.8814 12.9989 15.6862 12.999 15.4892C12.9991 15.2921 13.038 15.097 13.1134 14.915C13.1889 14.733 13.2995 14.5676 13.4389 14.4283C13.5782 14.289 13.7437 14.1786 13.9258 14.1032C14.1078 14.0279 14.303 13.9891 14.5 13.9892C14.898 13.9893 15.2796 14.1475 15.5609 14.429C15.8422 14.7105 16.0001 15.0922 16 15.4902C15.9999 15.8881 15.8417 16.2697 15.5602 16.551C15.2787 16.8324 14.897 16.9903 14.499 16.9902Z" fill="#403A3A"/>
</svg>
