<svg width="24" height="24" viewBox="0 0 24 24" fill="none" xmlns="http://www.w3.org/2000/svg">
<path d="M15.75 14.25C15.75 14.8467 15.5129 15.419 15.091 15.841C14.669 16.2629 14.0967 16.5 13.5 16.5H9.75V12H13.5C14.0967 12 14.669 12.2371 15.091 12.659C15.5129 13.081 15.75 13.6533 15.75 14.25ZM21.75 12C21.75 13.9284 21.1782 15.8134 20.1068 17.4168C19.0355 19.0202 17.5127 20.2699 15.7312 21.0078C13.9496 21.7458 11.9892 21.9389 10.0979 21.5627C8.20655 21.1865 6.46927 20.2579 5.10571 18.8943C3.74214 17.5307 2.81355 15.7934 2.43734 13.9021C2.06113 12.0108 2.25422 10.0504 2.99217 8.26884C3.73013 6.48726 4.97981 4.96451 6.58319 3.89317C8.18657 2.82183 10.0716 2.25 12 2.25C14.585 2.25273 17.0634 3.28084 18.8913 5.10872C20.7192 6.93661 21.7473 9.41498 21.75 12ZM17.25 14.25C17.2498 13.6363 17.0991 13.032 16.8109 12.4901C16.5227 11.9483 16.106 11.4854 15.5972 11.1422C15.9771 10.7704 16.2514 10.3043 16.392 9.79169C16.5326 9.27906 16.5344 8.73828 16.3974 8.22469C16.2603 7.7111 15.9893 7.24315 15.612 6.86872C15.2346 6.4943 14.7646 6.22685 14.25 6.09375V5.25C14.25 5.05109 14.171 4.86032 14.0303 4.71967C13.8897 4.57902 13.6989 4.5 13.5 4.5C13.3011 4.5 13.1103 4.57902 12.9697 4.71967C12.829 4.86032 12.75 5.05109 12.75 5.25V6H11.25V5.25C11.25 5.05109 11.171 4.86032 11.0303 4.71967C10.8897 4.57902 10.6989 4.5 10.5 4.5C10.3011 4.5 10.1103 4.57902 9.96967 4.71967C9.82901 4.86032 9.75 5.05109 9.75 5.25V6H8.25C8.05108 6 7.86032 6.07902 7.71967 6.21967C7.57901 6.36032 7.5 6.55109 7.5 6.75C7.5 6.94891 7.57901 7.13968 7.71967 7.28033C7.86032 7.42098 8.05108 7.5 8.25 7.5V16.5C8.05108 16.5 7.86032 16.579 7.71967 16.7197C7.57901 16.8603 7.5 17.0511 7.5 17.25C7.5 17.4489 7.57901 17.6397 7.71967 17.7803C7.86032 17.921 8.05108 18 8.25 18H9.75V18.75C9.75 18.9489 9.82901 19.1397 9.96967 19.2803C10.1103 19.421 10.3011 19.5 10.5 19.5C10.6989 19.5 10.8897 19.421 11.0303 19.2803C11.171 19.1397 11.25 18.9489 11.25 18.75V18H12.75V18.75C12.75 18.9489 12.829 19.1397 12.9697 19.2803C13.1103 19.421 13.3011 19.5 13.5 19.5C13.6989 19.5 13.8897 19.421 14.0303 19.2803C14.171 19.1397 14.25 18.9489 14.25 18.75V17.9241C15.0965 17.7504 15.8571 17.2901 16.4036 16.6207C16.9501 15.9514 17.2491 15.1141 17.25 14.25ZM15 9C15 8.60218 14.842 8.22064 14.5607 7.93934C14.2794 7.65804 13.8978 7.5 13.5 7.5H9.75V10.5H13.5C13.8978 10.5 14.2794 10.342 14.5607 10.0607C14.842 9.77936 15 9.39782 15 9Z" fill="#403A3A"/>
</svg>
