<svg width="24" height="24" viewBox="0 0 24 24" fill="none" xmlns="http://www.w3.org/2000/svg">
<path d="M16.5 10.125C16.5 10.8212 16.2234 11.4889 15.7312 11.9812C15.2389 12.4734 14.5712 12.75 13.875 12.75H10.5V7.5H13.875C14.5712 7.5 15.2389 7.77656 15.7312 8.26884C16.2234 8.76113 16.5 9.42881 16.5 10.125ZM21.75 12C21.75 13.9284 21.1782 15.8134 20.1068 17.4168C19.0355 19.0202 17.5127 20.2699 15.7312 21.0078C13.9496 21.7458 11.9892 21.9389 10.0979 21.5627C8.20656 21.1865 6.46928 20.2579 5.10571 18.8943C3.74215 17.5307 2.81355 15.7934 2.43735 13.9021C2.06114 12.0108 2.25422 10.0504 2.99218 8.26884C3.73013 6.48726 4.97982 4.96451 6.58319 3.89317C8.18657 2.82183 10.0716 2.25 12 2.25C14.585 2.25273 17.0634 3.28084 18.8913 5.10872C20.7192 6.93661 21.7473 9.41498 21.75 12ZM18 10.125C17.9988 9.03136 17.5638 7.98287 16.7904 7.20955C16.0171 6.43624 14.9686 6.00124 13.875 6H9.75C9.55109 6 9.36033 6.07902 9.21967 6.21967C9.07902 6.36032 9 6.55109 9 6.75V12.75H7.5C7.30109 12.75 7.11033 12.829 6.96967 12.9697C6.82902 13.1103 6.75 13.3011 6.75 13.5C6.75 13.6989 6.82902 13.8897 6.96967 14.0303C7.11033 14.171 7.30109 14.25 7.5 14.25H9V15.75H7.5C7.30109 15.75 7.11033 15.829 6.96967 15.9697C6.82902 16.1103 6.75 16.3011 6.75 16.5C6.75 16.6989 6.82902 16.8897 6.96967 17.0303C7.11033 17.171 7.30109 17.25 7.5 17.25H9V18.75C9 18.9489 9.07902 19.1397 9.21967 19.2803C9.36033 19.421 9.55109 19.5 9.75 19.5C9.94892 19.5 10.1397 19.421 10.2803 19.2803C10.421 19.1397 10.5 18.9489 10.5 18.75V17.25H14.25C14.4489 17.25 14.6397 17.171 14.7803 17.0303C14.921 16.8897 15 16.6989 15 16.5C15 16.3011 14.921 16.1103 14.7803 15.9697C14.6397 15.829 14.4489 15.75 14.25 15.75H10.5V14.25H13.875C14.9686 14.2488 16.0171 13.8138 16.7904 13.0404C17.5638 12.2671 17.9988 11.2186 18 10.125Z" fill="#403A3A"/>
</svg>
