<svg width="24" height="24" viewBox="0 0 24 24" fill="none" xmlns="http://www.w3.org/2000/svg">
<path d="M12 2.25C10.0716 2.25 8.18657 2.82183 6.58319 3.89317C4.97981 4.96451 3.73013 6.48726 2.99217 8.26884C2.25422 10.0504 2.06113 12.0108 2.43734 13.9021C2.81355 15.7934 3.74214 17.5307 5.10571 18.8943C6.46927 20.2579 8.20655 21.1865 10.0979 21.5627C11.9892 21.9389 13.9496 21.7458 15.7312 21.0078C17.5127 20.2699 19.0355 19.0202 20.1068 17.4168C21.1782 15.8134 21.75 13.9284 21.75 12C21.7473 9.41498 20.7192 6.93661 18.8913 5.10872C17.0634 3.28084 14.585 2.25273 12 2.25ZM12 9.75C12.1989 9.75 12.3897 9.82902 12.5303 9.96967C12.671 10.1103 12.75 10.3011 12.75 10.5C12.75 10.6989 12.671 10.8897 12.5303 11.0303C12.3897 11.171 12.1989 11.25 12 11.25H8.25V12.75H11.25C11.4489 12.75 11.6397 12.829 11.7803 12.9697C11.921 13.1103 12 13.3011 12 13.5C12 13.6989 11.921 13.8897 11.7803 14.0303C11.6397 14.171 11.4489 14.25 11.25 14.25H8.42718C8.6398 14.9196 9.019 15.5243 9.52923 16.0073C10.0395 16.4903 10.664 16.8358 11.3443 17.0114C12.0246 17.187 12.7383 17.1869 13.4185 17.0112C14.0988 16.8355 14.7233 16.4899 15.2334 16.0069C15.3039 15.9343 15.3882 15.8768 15.4815 15.8376C15.5747 15.7985 15.6749 15.7787 15.776 15.7792C15.8771 15.7798 15.977 15.8009 16.0698 15.8411C16.1626 15.8813 16.2463 15.9398 16.3158 16.0132C16.3854 16.0865 16.4394 16.1732 16.4747 16.268C16.5099 16.3628 16.5256 16.4637 16.5208 16.5647C16.516 16.6657 16.4909 16.7647 16.4468 16.8557C16.4028 16.9467 16.3409 17.0279 16.2647 17.0944C15.5415 17.7795 14.6499 18.261 13.6805 18.4901C12.711 18.7192 11.6982 18.6877 10.7449 18.3988C9.79155 18.11 8.93161 17.574 8.25237 16.8453C7.57314 16.1167 7.09879 15.2213 6.8775 14.25H6C5.80108 14.25 5.61032 14.171 5.46967 14.0303C5.32901 13.8897 5.25 13.6989 5.25 13.5C5.25 13.3011 5.32901 13.1103 5.46967 12.9697C5.61032 12.829 5.80108 12.75 6 12.75H6.75V11.25H6C5.80108 11.25 5.61032 11.171 5.46967 11.0303C5.32901 10.8897 5.25 10.6989 5.25 10.5C5.25 10.3011 5.32901 10.1103 5.46967 9.96967C5.61032 9.82902 5.80108 9.75 6 9.75H6.855C7.05893 8.76516 7.52229 7.8527 8.19714 7.107C8.87198 6.36129 9.73381 5.80943 10.6935 5.50851C11.6531 5.20758 12.6757 5.16852 13.6556 5.39536C14.6354 5.6222 15.5368 6.1067 16.2666 6.79875C16.3427 6.86522 16.4047 6.94641 16.4487 7.03744C16.4927 7.12847 16.5179 7.22745 16.5227 7.32845C16.5274 7.42945 16.5117 7.53037 16.4765 7.62514C16.4413 7.71992 16.3873 7.8066 16.3177 7.87996C16.2481 7.95333 16.1645 8.01187 16.0717 8.05207C15.9789 8.09227 15.879 8.1133 15.7779 8.11388C15.6767 8.11447 15.5766 8.09461 15.4833 8.05549C15.3901 8.01637 15.3057 7.9588 15.2353 7.88625C14.7184 7.39631 14.084 7.04773 13.3933 6.87409C12.7026 6.70045 11.9788 6.70761 11.2917 6.89487C10.6045 7.08213 9.97716 7.44318 9.47004 7.94324C8.96292 8.44331 8.59311 9.06554 8.39625 9.75H12Z" fill="#403A3A"/>
</svg>
