<svg width="24" height="24" viewBox="0 0 24 24" fill="none" xmlns="http://www.w3.org/2000/svg">
<path d="M8.5 19H5M8.599 16.479C8.42951 16.2966 8.21728 16.1592 7.98144 16.0793C7.74561 15.9994 7.49359 15.9795 7.24813 16.0213C7.00267 16.0631 6.77148 16.1654 6.57542 16.3189C6.37936 16.4724 6.22459 16.6723 6.12509 16.9006C6.02558 17.1288 5.98446 17.3783 6.00544 17.6264C6.02642 17.8745 6.10884 18.1135 6.24526 18.3218C6.38168 18.5301 6.56781 18.7012 6.78686 18.8196C7.00592 18.938 7.251 19 7.5 19M7 4V13M15 13H16.888C17.1519 13.0001 17.4112 12.9305 17.6397 12.7983C17.8681 12.6662 18.0576 12.476 18.1891 12.2472C18.3206 12.0183 18.3893 11.7588 18.3884 11.4949C18.3875 11.231 18.317 10.972 18.184 10.744L16 7M11 13.01V13" stroke="#403A3A" stroke-width="2" stroke-linecap="round" stroke-linejoin="round"/>
</svg>
