<svg width="24" height="24" viewBox="0 0 24 24" fill="none" xmlns="http://www.w3.org/2000/svg">
<path d="M8 12.0518C9.995 12.0518 11.5 10.5468 11.5 8.55176C11.5 6.55676 9.995 5.05176 8 5.05176C6.005 5.05176 4.5 6.55676 4.5 8.55176C4.5 10.5468 6.005 12.0518 8 12.0518ZM9 12.9998H7C4.243 12.9998 2 15.2428 2 17.9998V18.9998H14V17.9998C14 15.2428 11.757 12.9998 9 12.9998ZM20.294 8.29176L15.994 12.5838L14.702 11.2918L13.288 12.7058L15.994 15.4098L21.706 9.70776L20.294 8.29176Z" fill="#403A3A"/>
</svg>
