<svg width="24" height="24" viewBox="0 0 24 24" fill="none" xmlns="http://www.w3.org/2000/svg">
<path d="M8.7 21C7.71667 21 7.06267 20.8333 6.738 20.5C6.41333 20.1667 5.95067 20 5.35 20C5.11667 20 4.89167 20.0417 4.675 20.125C4.45833 20.2083 4.05833 20.4167 3.475 20.75C3.14167 20.9333 2.81267 20.929 2.488 20.737C2.16333 20.545 2.00067 20.258 2 19.876C2 19.6927 2.046 19.5217 2.138 19.363C2.23 19.2043 2.359 19.0833 2.525 19C3.325 18.5667 3.87933 18.2917 4.188 18.175C4.49667 18.0583 4.884 18 5.35 18C6.3 18 6.93767 18.1667 7.263 18.5C7.58833 18.8333 8.05067 19 8.65 19C9.28333 19 9.754 18.8333 10.062 18.5C10.37 18.1667 11.016 18 12 18C12.95 18 13.5917 18.1667 13.925 18.5C14.2583 18.8333 14.7167 19 15.3 19C15.9333 19 16.404 18.8333 16.712 18.5C17.02 18.1667 17.666 18 18.65 18C19.1167 18 19.5083 18.0583 19.825 18.175C20.1417 18.2917 20.6917 18.5667 21.475 19C21.6417 19.0833 21.7707 19.2043 21.862 19.363C21.9533 19.5217 21.9993 19.6923 22 19.875C22 20.2583 21.8333 20.546 21.5 20.738C21.1667 20.93 20.8333 20.934 20.5 20.75C19.9167 20.4167 19.5207 20.2083 19.312 20.125C19.1033 20.0417 18.8827 20 18.65 20C18.05 20 17.5957 20.1667 17.287 20.5C16.9783 20.8333 16.3327 21 15.35 21C14.4 21 13.7543 20.8333 13.413 20.5C13.0717 20.1667 12.6007 20 12 20C11.3667 20 10.904 20.1667 10.612 20.5C10.32 20.8333 9.68267 21 8.7 21ZM6 4C6 4.28334 5.904 4.521 5.712 4.713C5.52 4.905 5.28267 5.00067 5 5H4C3.71667 5 3.479 4.904 3.287 4.712C3.095 4.52 2.99933 4.28267 3 4C3 3.71667 3.096 3.479 3.288 3.287C3.48 3.095 3.71733 2.99934 4 3H5C5.28333 3 5.521 3.096 5.713 3.288C5.905 3.48 6.00067 3.71734 6 4ZM7.525 7.675C7.725 7.875 7.825 8.11267 7.825 8.388C7.825 8.66334 7.725 8.90067 7.525 9.1L6.825 9.8C6.64167 9.98334 6.41233 10.075 6.137 10.075C5.86167 10.075 5.62467 9.98334 5.426 9.8C5.226 9.6 5.126 9.36234 5.126 9.087C5.126 8.81167 5.226 8.57434 5.426 8.375L6.126 7.675C6.30867 7.49167 6.53767 7.4 6.813 7.4C7.08833 7.4 7.32567 7.49167 7.525 7.675ZM12 8C10.6167 8 9.43733 7.51234 8.462 6.537C7.48667 5.56167 6.99933 4.38267 7 3H17C17 4.38334 16.5123 5.56267 15.537 6.538C14.5617 7.51334 13.3827 8.00067 12 8ZM12 9C12.2833 9 12.521 9.096 12.713 9.288C12.905 9.48 13.0007 9.71734 13 10V11C13 11.2833 12.904 11.521 12.712 11.713C12.52 11.905 12.2827 12.0007 12 12C11.7167 12 11.479 11.904 11.287 11.712C11.095 11.52 10.9993 11.2827 11 11V10C11 9.71667 11.096 9.479 11.288 9.287C11.48 9.095 11.7173 8.99934 12 9ZM16.475 7.7C16.6583 7.51667 16.8917 7.425 17.175 7.425C17.4583 7.425 17.6917 7.51667 17.875 7.7L18.575 8.4C18.775 8.6 18.8793 8.83334 18.888 9.1C18.8967 9.36667 18.8007 9.6 18.6 9.8C18.4 10 18.1623 10.1 17.887 10.1C17.6117 10.1 17.3743 10 17.175 9.8L16.475 9.1C16.2917 8.9 16.1957 8.66667 16.187 8.4C16.1783 8.13334 16.2743 7.9 16.475 7.7ZM21 4C21 4.28334 20.904 4.521 20.712 4.713C20.52 4.905 20.2827 5.00067 20 5H19C18.7167 5 18.479 4.904 18.287 4.712C18.095 4.52 17.9993 4.28267 18 4C18 3.71667 18.096 3.479 18.288 3.287C18.48 3.095 18.7173 2.99934 19 3H20C20.2833 3 20.521 3.096 20.713 3.288C20.905 3.48 21.0007 3.71734 21 4ZM8.7 17C7.71667 17 7.06267 16.8333 6.738 16.5C6.41333 16.1667 5.95067 16 5.35 16C5.11667 16 4.9 16.0377 4.7 16.113C4.5 16.1883 4.10833 16.3923 3.525 16.725C3.19167 16.9083 2.85833 16.904 2.525 16.712C2.19167 16.52 2.025 16.2327 2.025 15.85C2.025 15.6667 2.071 15.496 2.163 15.338C2.255 15.18 2.384 15.059 2.55 14.975C3.35 14.5417 3.9 14.271 4.2 14.163C4.5 14.055 4.88333 14.0007 5.35 14C6.3 14 6.93767 14.1667 7.263 14.5C7.58833 14.8333 8.05067 15 8.65 15C9.28333 15 9.75433 14.8333 10.063 14.5C10.3717 14.1667 11.0173 14 12 14C12.95 14 13.5917 14.1667 13.925 14.5C14.2583 14.8333 14.7167 15 15.3 15C15.9333 15 16.4043 14.8333 16.713 14.5C17.0217 14.1667 17.6673 14 18.65 14C19.1167 14 19.5 14.0543 19.8 14.163C20.1 14.2717 20.6417 14.5423 21.425 14.975C21.5917 15.0583 21.721 15.1793 21.813 15.338C21.905 15.4967 21.9507 15.6673 21.95 15.85C21.95 16.2333 21.7833 16.521 21.45 16.713C21.1167 16.905 20.7833 16.909 20.45 16.725C19.8667 16.3917 19.4793 16.1873 19.288 16.112C19.0967 16.0367 18.884 15.9993 18.65 16C18.05 16 17.596 16.1667 17.288 16.5C16.98 16.8333 16.334 17 15.35 17C14.4 17 13.7543 16.8333 13.413 16.5C13.0717 16.1667 12.6007 16 12 16C11.3667 16 10.904 16.1667 10.612 16.5C10.32 16.8333 9.68267 17 8.7 17Z" fill="#403A3A"/>
</svg>
