<svg width="24" height="24" viewBox="0 0 24 24" fill="none" xmlns="http://www.w3.org/2000/svg">
<path d="M22.5647 4.73157C21.9431 4.06672 21.1916 3.53666 20.3567 3.17427C19.5218 2.81187 18.6214 2.62488 17.7113 2.62488C16.8011 2.62488 15.9007 2.81187 15.0658 3.17427C14.2309 3.53666 13.4794 4.06672 12.8578 4.73157C12.5369 5.06913 12.2496 5.43711 12 5.83032C11.7504 5.43711 11.4631 5.06913 11.1422 4.73157C10.5206 4.06672 9.76911 3.53666 8.93422 3.17427C8.09933 2.81187 7.1989 2.62488 6.28875 2.62488C5.37861 2.62488 4.47817 2.81187 3.64328 3.17427C2.8084 3.53666 2.05687 4.06672 1.43531 4.73157C1.31047 4.86263 1.21909 5.02188 1.16893 5.1958C1.11877 5.36971 1.11132 5.55317 1.14721 5.73058C1.1831 5.90799 1.26126 6.07413 1.37507 6.21488C1.48888 6.35563 1.63497 6.46684 1.80094 6.53907L6.1875 8.44876C4.61668 9.11465 3.33948 10.3259 2.59126 11.8592C1.84303 13.3925 1.67423 15.1446 2.11594 16.7925C2.16416 16.9705 2.25538 17.1338 2.38156 17.2682C2.50775 17.4027 2.66503 17.504 2.83958 17.5634C3.01413 17.6227 3.20059 17.6383 3.38256 17.6086C3.56452 17.579 3.73642 17.5051 3.88313 17.3934L10.875 12.0703V21C10.875 21.2984 10.9935 21.5845 11.2045 21.7955C11.4155 22.0065 11.7016 22.125 12 22.125C12.2984 22.125 12.5845 22.0065 12.7955 21.7955C13.0065 21.5845 13.125 21.2984 13.125 21V12.0703L20.1131 17.3944C20.2598 17.506 20.4317 17.5799 20.6137 17.6096C20.7957 17.6392 20.9821 17.6236 21.1567 17.5643C21.3312 17.5049 21.4885 17.4036 21.6147 17.2692C21.7409 17.1348 21.8321 16.9714 21.8803 16.7934C22.322 15.1455 22.1532 13.3934 21.405 11.8601C20.6568 10.3268 19.3796 9.11558 17.8088 8.4497L22.1991 6.54001C22.365 6.46778 22.5111 6.35657 22.6249 6.21582C22.7387 6.07506 22.8169 5.90893 22.8528 5.73152C22.8887 5.55411 22.8812 5.37065 22.8311 5.19673C22.7809 5.02282 22.6895 4.86357 22.5647 4.73251V4.73157ZM6.28875 4.87501C6.89361 4.87647 7.49174 5.00202 8.04614 5.2439C8.60053 5.48579 9.0994 5.83885 9.51188 6.28126C9.9514 6.74395 10.2966 7.28783 10.5281 7.88251L4.5 5.25938C5.06215 5.00557 5.67196 4.87453 6.28875 4.87501ZM4.16156 14.3578C4.28541 13.4012 4.69179 12.5032 5.32874 11.7787C5.96569 11.0543 6.80425 10.5362 7.73719 10.2909C8.15196 10.1808 8.57929 10.125 9.00844 10.125C9.22795 10.1244 9.44723 10.1392 9.66469 10.1691L4.16156 14.3578ZM19.2188 12.5447C19.5439 13.1015 19.7534 13.7182 19.8347 14.3578L14.3438 10.1681C14.9865 10.0813 15.6401 10.123 16.2666 10.2909C16.8828 10.4536 17.4609 10.7365 17.9675 11.1233C18.4742 11.51 18.8994 11.9931 19.2188 12.5447ZM13.4719 7.88251C13.7034 7.28783 14.0486 6.74395 14.4881 6.28126C14.9006 5.83885 15.3995 5.48579 15.9539 5.2439C16.5083 5.00202 17.1064 4.87647 17.7113 4.87501C18.328 4.87453 18.9379 5.00557 19.5 5.25938L13.4719 7.88251Z" fill="#403A3A"/>
</svg>
